<svg xmlns="http://www.w3.org/2000/svg" viewBox="0 0 69.37 13.58">
    <defs>
        <style>.cls-1,.cls-3{fill:#68d391;}.cls-2{fill:#fff;}.cls-3{font-size:4.48px;font-family:Arial-Black,
            Arial;font-weight:800;letter-spacing:0.07em;}
        </style>
    </defs>
    <path class="cls-1"
          d="M26.34,41.15v.29a3.32,3.32,0,0,1-3.14,3.31H9.9a3.32,3.32,0,0,1-3.32-3.32v-.29A3.32,3.32,0,0,1,9.9,37.84h.24a4.37,4.37,0,0,1,4.28-3.54,4.64,4.64,0,0,1,1,.11,4.2,4.2,0,0,1,3.36-1.69h.61a4.31,4.31,0,0,1,4.25,4.36,4.26,4.26,0,0,1-.08.8A3.32,3.32,0,0,1,26.34,41.15Z"
          transform="translate(-6.58 -32.72)"/>
    <path class="cls-2"
          d="M16.23,36.92a2.24,2.24,0,0,0-1.58.58A2,2,0,0,0,14.06,39a2.2,2.2,0,0,0,.34,1.1,4.2,4.2,0,0,1,.45.93c.11.42.19.93.32,1.36a1.73,1.73,0,0,0,.28.56.71.71,0,0,0,.55.3.69.69,0,0,0,.55-.29,1.09,1.09,0,0,0,.14-.6,7.6,7.6,0,0,1,0-1,1,1,0,0,1,.13-.37c0-.08,0-.08.08-.08s0,0,.08.08a1.06,1.06,0,0,1,.12.37,6.35,6.35,0,0,1,.06,1,1.09,1.09,0,0,0,.14.6.68.68,0,0,0,.55.29.69.69,0,0,0,.55-.3,1.77,1.77,0,0,0,.27-.57c.14-.43.22-.93.33-1.35a4.65,4.65,0,0,1,.44-.93,2.11,2.11,0,0,0,.35-1.1,2,2,0,0,0-2.09-2.06,3.22,3.22,0,0,0-.82.15A1.75,1.75,0,0,0,16.23,36.92Zm0,.53a2.49,2.49,0,0,1,1.31.64l.37-.38-.3-.24.14,0A1.43,1.43,0,0,1,19.31,39h0a1.67,1.67,0,0,1-.27.85,4.58,4.58,0,0,0-.5,1c-.12.46-.2,1-.32,1.33a1.44,1.44,0,0,1-.19.41c-.06.08-.08.09-.13.09s-.08,0-.11-.05a.79.79,0,0,1-.05-.31,6.81,6.81,0,0,0-.07-1.12,1.55,1.55,0,0,0-.19-.56.64.64,0,0,0-.53-.32.67.67,0,0,0-.54.32,1.54,1.54,0,0,0-.18.56,5.86,5.86,0,0,0-.07,1.12.6.6,0,0,1-.06.31s0,.05-.1.05-.08,0-.14-.09a1.26,1.26,0,0,1-.18-.4c-.12-.37-.2-.88-.32-1.34a4.2,4.2,0,0,0-.51-1,1.67,1.67,0,0,1-.27-.85A1.48,1.48,0,0,1,15,37.87,1.68,1.68,0,0,1,16.23,37.45Z"
          transform="translate(-6.58 -32.72)"/>
    <text class="cls-3" transform="translate(21.5 10.65) scale(2.05 2.13)">Dentisto</text>
</svg>
